HIERARCHY
ROOT root
{
	OFFSET 0.000000 0.000000 0.000000
	CHANNELS 6 Xposition Yposition Zposition Zrotation Yrotation Xrotation
	JOINT lhip
	{
		OFFSET 0.058581 -0.082280 -0.017664
		CHANNELS 3 Zrotation Yrotation Xrotation
		JOINT lknee
		{
			OFFSET 0.043451 -0.386469 0.008037
			CHANNELS 3 Zrotation Yrotation Xrotation
			JOINT lankle
			{
				OFFSET -0.014790 -0.426874 -0.037428
				CHANNELS 3 Zrotation Yrotation Xrotation
				JOINT ltoe
				{
					OFFSET 0.041054 -0.060286 0.122042
					CHANNELS 3 Zrotation Yrotation Xrotation
					End Site
					{
						OFFSET 0.000000 0.000000 0.000000
					}
				}
			}
		}
	}
	JOINT rhip
	{
		OFFSET -0.060310 -0.090513 -0.013543
		CHANNELS 3 Zrotation Yrotation Xrotation
		JOINT rknee
		{
			OFFSET -0.043257 -0.383688 -0.004843
			CHANNELS 3 Zrotation Yrotation Xrotation
			JOINT rankle
			{
				OFFSET 0.019056 -0.420046 -0.034562
				CHANNELS 3 Zrotation Yrotation Xrotation
				JOINT rtoe
				{
					OFFSET -0.034840 -0.062106 0.130323
					CHANNELS 3 Zrotation Yrotation Xrotation
					End Site
					{
						OFFSET 0.000000 0.000000 0.000000
					}
				}
			}
		}
	}
	JOINT lowerback
	{
		OFFSET 0.004439 0.124404 -0.038385
		CHANNELS 3 Zrotation Yrotation Xrotation
		JOINT upperback
		{
			OFFSET 0.004488 0.137956 0.026820
			CHANNELS 3 Zrotation Yrotation Xrotation
			JOINT chest
			{
				OFFSET -0.002265 0.056032 0.002855
				CHANNELS 3 Zrotation Yrotation Xrotation
				JOINT lowerneck
				{
					OFFSET -0.013390 0.211636 -0.033468
					CHANNELS 3 Zrotation Yrotation Xrotation
					JOINT upperneck
					{
						OFFSET 0.010113 0.088937 0.050410
						CHANNELS 3 Zrotation Yrotation Xrotation
						End Site
						{
							OFFSET 0.000000 0.000000 0.000000
						}
					}
				}
				JOINT lclavicle
				{
					OFFSET 0.071702 0.114000 -0.018898
					CHANNELS 3 Zrotation Yrotation Xrotation
					JOINT lshoulder
					{
						OFFSET 0.122921 0.045205 -0.019046
						CHANNELS 3 Zrotation Yrotation Xrotation
						JOINT lelbow
						{
							OFFSET 0.255332 -0.015649 -0.022946
							CHANNELS 3 Zrotation Yrotation Xrotation
							JOINT lwrist
							{
								OFFSET 0.265709 0.012698 -0.007375
								CHANNELS 3 Zrotation Yrotation Xrotation
								End Site
								{
									OFFSET 0.000000 0.000000 0.000000
								}
							}
						}
					}
				}
				JOINT rclavicle
				{
					OFFSET -0.082954 0.112472 -0.023707
					CHANNELS 3 Zrotation Yrotation Xrotation
					JOINT rshoulder
					{
						OFFSET -0.113228 0.046853 -0.008472
						CHANNELS 3 Zrotation Yrotation Xrotation
						JOINT relbow
						{
							OFFSET -0.260127 -0.014369 -0.031269
							CHANNELS 3 Zrotation Yrotation Xrotation
							JOINT rwrist
							{
								OFFSET -0.269108 0.006794 -0.006027
								CHANNELS 3 Zrotation Yrotation Xrotation
								End Site
								{
									OFFSET 0.000000 0.000000 0.000000
								}
							}
						}
					}
				}
			}
		}
	}
}
MOTION
Frames: 10
Frame Time: 0.033333
-1.789164 0.421320 1.000296 90.809403 0.102954 89.949620 4.830619 2.670772 5.054606 2.525349 -12.443940 -4.639381 0.007470 10.776116 -17.109114 0.000000 -0.000000 0.000000 -0.508238 -5.377598 6.291078 -4.048487 4.062829 -6.442470 3.632306 -16.380801 -9.389874 0.000000 -0.000000 0.000000 1.433429 0.716207 2.045573 -1.701838 -2.946014 3.932305 -0.299612 -1.083136 3.634776 -2.016292 -4.683666 1.981146 2.519136 -2.704536 -7.210395 0.895647 6.306292 0.069209 -19.065197 -1.690186 -12.540882 9.580703 -11.718443 -4.137916 -8.044173 -12.293349 7.442074 -4.568056 -0.896425 -2.706251 17.196169 4.335538 -11.214198 -9.817641 17.309908 -8.555494 12.418680 9.444446 -5.410818 
-1.788668 0.420533 1.000064 90.835735 0.100103 90.194735 4.865259 2.675659 4.853008 2.559785 -12.490685 -4.671676 -0.214432 10.871620 -17.191221 0.000000 -0.000000 0.000000 -0.406955 -5.225912 6.218266 -4.091438 3.995633 -6.646389 3.970745 -16.581894 -9.456288 0.000000 -0.000000 0.000000 1.474876 0.585067 1.815740 -1.897132 -2.830202 3.926613 -0.172379 -1.039895 3.886178 -2.027556 -4.833639 1.871338 2.436280 -2.799315 -7.000806 0.996737 6.250572 0.048995 -18.884003 -2.119885 -12.657015 9.702186 -11.781476 -4.352908 -7.451126 -12.476849 7.977358 -4.564882 -0.894604 -2.851821 17.200821 4.430518 -11.208204 -9.817459 17.208487 -9.064900 12.171105 9.484909 -4.993899 
-1.788072 0.419874 1.000032 90.830195 0.085250 90.355793 4.861509 2.664770 4.736436 2.617027 -12.447831 -4.704336 -0.236999 10.863654 -17.184882 0.000000 -0.000000 0.000000 -0.361854 -5.189675 6.138564 -4.098741 3.950361 -6.725325 3.985912 -16.635891 -9.486962 0.000000 -0.000000 0.000000 1.478394 0.568608 1.776092 -1.875066 -2.846247 3.933939 -0.161271 -1.032198 3.911515 -2.111529 -4.699129 1.795670 2.385488 -2.805571 -6.867746 1.042222 6.161004 -0.010003 -18.819170 -2.282148 -12.673719 9.826953 -12.097516 -4.441948 -6.768975 -12.725000 8.279915 -4.524388 -0.870056 -2.900725 17.169977 4.450775 -11.205649 -9.840869 17.273821 -9.122648 11.733977 9.565459 -4.923436 
-1.787446 0.419282 1.000002 90.822953 0.087904 90.569711 4.880840 2.659223 4.557345 2.644919 -12.443031 -4.712616 -0.281379 10.882862 -17.199013 0.000000 -0.000000 0.000000 -0.314206 -5.164218 5.920967 -4.069107 3.969211 -6.664454 3.994724 -16.647727 -9.574874 0.000000 -0.000000 0.000000 1.557894 0.523774 1.893939 -1.866416 -2.836358 3.764286 -0.143187 -1.062244 3.878539 -2.209703 -4.480667 1.555707 2.259116 -2.646128 -6.677908 1.064650 6.105971 -0.029247 -18.770447 -2.404907 -12.693363 9.937545 -12.542471 -4.491483 -6.240399 -12.874719 8.430171 -4.506524 -0.824727 -2.888621 17.123917 4.472915 -11.191465 -9.848184 17.365045 -9.161250 11.498800 9.618357 -4.923650 
-1.787047 0.419023 0.999989 90.808367 0.096550 90.685358 4.910231 2.680983 4.478900 2.647125 -12.425617 -4.743007 -0.309287 10.871478 -17.222341 0.000000 -0.000000 0.000000 -0.276248 -5.134374 5.799465 -4.062206 3.974045 -6.616868 3.989978 -16.658988 -9.635171 0.000000 -0.000000 0.000000 1.614010 0.488833 2.030629 -1.865747 -2.816374 3.621357 -0.127479 -1.078362 3.832787 -2.254349 -4.342822 1.426517 2.188803 -2.543262 -6.558464 1.074928 6.048049 0.003569 -18.729179 -2.435117 -12.716365 9.978655 -12.777043 -4.490252 -6.196327 -12.936615 8.526048 -4.502634 -0.782563 -2.876646 17.100337 4.459103 -11.194401 -9.831255 17.394062 -9.170949 11.569725 9.628266 -4.933262 
-1.786367 0.418703 0.999917 90.786052 0.097691 90.836871 4.932914 2.716635 4.394187 2.664210 -12.431942 -4.790884 -0.334494 10.864270 -17.262227 0.000000 -0.000000 0.000000 -0.229960 -5.088545 5.638157 -4.066287 3.977230 -6.526988 3.993927 -16.672817 -9.754063 0.000000 -0.000000 0.000000 1.663730 0.446509 2.152737 -1.856704 -2.787238 3.490416 -0.113174 -1.088575 3.814277 -2.275203 -4.154791 1.262040 2.114585 -2.428646 -6.391602 1.103687 5.992843 0.015051 -18.674440 -2.512388 -12.731660 9.992840 -12.998350 -4.434581 -6.222028 -13.052238 8.587809 -4.486834 -0.755492 -2.879683 17.057992 4.464388 -11.181115 -9.752830 17.397737 -9.137163 11.645982 9.655062 -4.966790 
-1.785593 0.418430 0.999820 90.744684 0.109132 90.986875 4.972111 2.732120 4.335762 2.674140 -12.448139 -4.851809 -0.307866 10.887352 -17.327829 0.000000 -0.000000 0.000000 -0.196888 -5.031752 5.406345 -4.017380 4.014352 -6.272521 3.967680 -16.680398 -9.997928 0.000000 -0.000000 0.000000 1.748780 0.404496 2.250916 -1.840579 -2.744097 3.400731 -0.126805 -1.102157 3.778933 -2.285570 -3.948443 1.145539 2.015906 -2.322757 -6.173829 1.102007 5.995633 0.031466 -18.678794 -2.577635 -12.728793 10.079982 -13.179278 -4.377893 -6.295533 -13.097391 8.513330 -4.467224 -0.749392 -2.864736 17.027649 4.502817 -11.175025 -9.737581 17.370357 -9.053691 11.748510 9.673173 -4.960193 
-1.784735 0.418054 0.999697 90.646657 0.148746 91.158836 5.038492 2.722095 4.270542 2.690127 -12.443115 -4.908855 -0.286064 10.949886 -17.414804 0.000000 -0.000000 0.000000 -0.166272 -4.929800 5.027777 -3.886680 4.084028 -5.777932 3.937239 -16.651958 -10.390523 0.000000 -0.000000 0.000000 1.889730 0.340675 2.411878 -1.828673 -2.661761 3.233320 -0.146389 -1.102296 3.731446 -2.318798 -3.750911 1.070436 1.912068 -2.240760 -5.913609 1.065858 6.022349 0.026597 -18.709007 -2.590363 -12.734809 10.187540 -13.402374 -4.485897 -6.337112 -13.104195 8.475146 -4.447092 -0.728380 -2.821052 16.955813 4.507732 -11.208377 -9.705347 17.413930 -9.034728 11.926428 9.669756 -5.008654 
-1.783873 0.417452 0.999599 90.509671 0.198138 91.352464 5.124089 2.734335 4.133176 2.675996 -12.465246 -4.845550 -0.290498 11.035857 -17.564894 0.000000 -0.000000 0.000000 -0.123036 -4.793978 4.514599 -3.725693 4.211137 -5.076481 3.897910 -16.624385 -10.880779 0.000000 -0.000000 0.000000 2.040795 0.276879 2.530234 -1.806972 -2.528523 3.159389 -0.171087 -1.098732 3.747739 -2.327948 -3.593110 0.913440 1.799325 -2.175492 -5.775271 0.986287 6.103932 0.027323 -18.788577 -2.588104 -12.691835 10.317960 -13.727808 -4.557256 -6.321838 -13.070633 8.371511 -4.377076 -0.773576 -2.840714 16.822463 4.508417 -11.237063 -9.686098 17.537345 -9.003076 12.092117 9.623055 -5.010399 
-1.782321 0.416270 0.999667 90.327886 0.246495 91.512361 5.243108 2.742667 3.940461 2.591835 -12.545886 -4.470787 -0.292728 11.202193 -17.909780 0.000000 -0.000000 0.000000 -0.077523 -4.618436 4.009542 -3.498622 4.344118 -4.231306 3.840234 -16.596032 -11.451800 0.000000 -0.000000 0.000000 2.204082 0.182032 2.844795 -1.780911 -2.421280 3.127708 -0.214715 -1.074991 3.751511 -2.297878 -3.447660 0.701459 1.678413 -2.138165 -5.764019 0.862300 6.237052 -0.005350 -18.830232 -2.403144 -12.607700 10.378548 -14.185513 -4.477948 -6.381456 -13.024462 8.310531 -4.275302 -0.837167 -2.889724 16.731611 4.455529 -11.238688 -9.719519 17.841949 -8.980914 12.183028 9.643528 -5.007714 
